PathFileType	4	(X/Y/Z)	D:\TRACE\v60_Jaco2_6-2-23\v60_baseline_3-v60.trc
DataRate	CameraRate	NumFrames	NumMarkers	Units	OrigDataRate	OrigDataStartFrame	OrigNumFrames
100.00	100.00	      20	9	mm	100.00	1626	      6500
Frame#	Time	front left toe			Front right toe			aft left toe			aft right toe			Arm			FL body			FR body			AL Body			AR Body			
		X1	Y1	Z1	X2	Y2	Z2	X3	Y3	Z3	X4	Y4	Z4	X5	Y5	Z5	X6	Y6	Z6	X7	Y7	Z7	X8	Y8	Z8	X9	Y9	Z9	

1626	16.250	-148.98215	62.20954	-203.23883	230.78841	17.26066	-205.00385	-146.16042	14.72829	424.14590	218.97298	60.89723	416.78937	-75.38367	1213.76001	-327.26801	-47.75493	581.76855	-334.04846	112.05436	582.75342	-336.95956	-29.86868	561.08386	611.58484	126.54986	555.79285	609.02734	
1627	16.260	-150.07837	73.41280	-203.97499	230.80296	17.10032	-205.03711	-146.36609	14.29022	424.12634	220.53995	71.92839	416.06314	-76.40930	1212.77759	-327.33691	-47.24462	581.36798	-333.99628	112.43745	582.38397	-336.83087	-31.02265	560.56049	611.45917	125.63763	555.05109	609.26392	
1628	16.270	-151.09804	84.65462	-204.41336	230.93098	16.93151	-205.04768	-146.63051	14.07734	424.13416	222.67133	83.03287	416.10019	-76.57246	1212.31836	-327.24060	-47.23584	580.97546	-334.30011	113.29659	582.08521	-337.03772	-31.41426	559.84583	611.70343	125.30147	554.54382	609.47156	
1629	16.280	-151.68553	95.68934	-204.51701	231.06006	16.79588	-204.95003	-146.75960	14.04925	424.19067	223.38406	93.72591	416.70996	-76.06989	1212.35571	-326.86310	-46.78876	580.70282	-334.29886	113.73425	581.56677	-336.82755	-32.06599	559.22906	611.74054	124.90747	554.08264	609.60254	
1630	16.290	-151.31119	105.83057	-204.20877	231.11865	16.57549	-204.85460	-148.10622	14.84535	423.99359	222.73442	103.51542	417.49884	-75.90620	1212.01941	-327.19098	-46.50049	580.27496	-334.34946	113.44801	580.76636	-336.34299	-32.20122	558.92365	611.81506	124.20046	553.69073	609.77997	
1631	16.300	-150.99333	115.41463	-203.80621	231.15155	16.60638	-204.64748	-148.19539	14.86940	423.98477	221.92520	113.07193	418.35535	-75.23685	1211.65112	-327.14874	-46.11037	579.43677	-334.24857	113.70033	580.46594	-336.01941	-32.70607	558.82635	611.91211	123.62709	553.61951	609.94568	
1632	16.310	-150.72563	123.92262	-203.50125	231.19026	16.55098	-204.56119	-148.18474	14.77354	423.89566	221.21114	121.61792	419.23547	-74.44451	1210.98157	-327.57584	-45.97313	578.93652	-334.07983	114.36211	580.21112	-336.22922	-33.11046	558.84589	612.06122	123.36410	553.70032	610.19421	
1633	16.320	-150.62019	131.01314	-203.09709	231.30580	16.55640	-204.41302	-148.23213	14.79209	423.88501	220.83557	129.00415	419.50180	-74.18054	1210.29858	-328.06256	-45.84712	578.46411	-334.03036	114.42219	579.63245	-336.08972	-33.75628	559.15637	611.94763	123.24442	553.88525	610.38245	
1634	16.330	-151.02193	136.65836	-202.42747	231.26228	16.42761	-204.39491	-148.22784	14.78235	423.93094	221.34789	135.06493	420.10458	-74.03911	1209.91028	-328.58310	-45.61250	578.19666	-333.87424	114.51579	578.96118	-335.54352	-34.16435	559.27344	612.05853	122.83045	553.83350	610.63770	
1635	16.340	-152.17278	141.52155	-202.31618	231.37251	16.43107	-204.29810	-148.19495	14.75715	423.94592	222.56323	140.02330	420.10483	-73.89031	1209.70630	-328.86966	-44.56255	577.78534	-333.32526	114.99551	578.74762	-335.46210	-34.59124	559.39813	612.18646	122.40384	554.02087	610.86530	
1636	16.350	-153.38293	144.71033	-201.84473	231.36008	16.37832	-204.23708	-148.19431	14.79785	423.95496	223.48392	143.10332	420.26556	-73.37546	1209.48645	-329.10742	-44.29247	577.61810	-333.22562	115.21345	578.55719	-335.34851	-34.88600	559.50525	612.23047	121.89745	554.29633	611.12018	
1637	16.360	-153.75037	144.95903	-201.37225	231.43600	16.47682	-204.10371	-148.21567	14.77874	423.90308	224.02553	142.70819	421.00204	-72.78960	1209.16418	-329.07617	-44.06527	577.62000	-333.28415	116.12954	578.46356	-335.38464	-35.63465	559.81812	612.18097	121.36485	554.47327	611.36102	
1638	16.370	-153.38380	141.34189	-200.42563	231.56383	16.49033	-204.02713	-148.20461	14.75485	423.83600	224.03107	139.91748	422.12500	-71.84657	1209.31970	-328.71613	-44.53012	577.71887	-333.73541	116.34290	578.36035	-335.21075	-35.98637	559.79517	612.33264	120.91999	554.43933	611.45142	
1639	16.380	-152.31763	137.31621	-200.08505	231.58659	16.44894	-204.03748	-148.21466	14.75669	423.84113	224.10379	135.70718	422.93301	-71.21440	1209.64453	-328.77930	-43.96302	577.55280	-333.82721	116.73786	578.32843	-334.96472	-36.23022	559.74042	612.36804	120.36250	554.34985	611.52948	
1640	16.390	-151.74106	132.21938	-199.76849	231.61552	16.39619	-204.00505	-148.20781	14.66753	423.77325	223.88837	130.46974	424.00363	-70.54439	1209.87988	-328.73578	-43.56000	577.52319	-333.81705	117.02970	578.33441	-334.82928	-36.49030	559.74084	612.42670	120.05440	554.27515	611.61865	
1641	16.400	-151.08337	126.33704	-199.73347	231.63737	16.38550	-203.96545	-148.24635	14.62617	423.72977	223.68082	124.40235	424.57050	-70.88969	1209.80505	-329.09860	-43.11061	577.49268	-333.77118	117.34922	578.30975	-334.67883	-36.64779	559.76563	612.35504	119.79872	554.23096	611.72858	
1642	16.410	-150.88879	120.04990	-199.92529	231.66443	16.40113	-203.92212	-148.28482	14.68733	423.72800	223.52499	117.41539	424.94992	-70.67803	1209.73474	-328.83517	-42.68369	577.47821	-333.75870	117.70026	578.41510	-334.63324	-36.88328	559.79993	612.32764	119.45051	554.15161	611.79187	
1643	16.420	-151.11812	113.34556	-200.23184	231.77151	16.40915	-203.86975	-148.25287	14.64984	423.69690	223.60422	109.53210	425.41504	-71.38372	1208.33154	-328.40918	-42.46806	577.51172	-333.74026	118.11521	578.46234	-334.52036	-37.20184	559.76672	612.28705	119.26328	554.09552	611.79486	
1644	16.430	-151.02696	105.92146	-200.39789	231.85387	16.32954	-203.87233	-148.26465	14.59779	423.61493	224.14519	101.40971	426.17551	-70.07434	1209.78625	-329.18466	-42.33652	577.58112	-333.73901	118.32417	578.49030	-334.45520	-37.66367	559.63110	612.24420	119.12729	554.02240	611.86786	
1645	16.440	-150.71198	98.15296	-200.20430	231.84244	16.25064	-203.91560	-148.18948	14.43167	423.53207	224.56277	93.14055	426.68018	-69.56688	1209.68909	-328.38687	-41.99641	577.51489	-333.73233	118.49442	578.48694	-334.41010	-38.12926	559.39496	612.26349	118.77427	553.94000	611.99005	
